# xmcd CD database file
#
# Track frame offsets:
#	150
#	16874
#	30721
#	45273
#	59768
#	69012
#	81966
#	94943
#	108378
#	118650
#	132234
#	146206
#	159341
#	172524
#	185771
#	197709
#	210588
#	224351
#	238034
#	252884
#	266368
#	281637
#
# Disc length: 3936 seconds
#
# Revision: 0
# Processed by: cddbd v1.5.2PL0 Copyright (c) Steve Scherf et al.
# Submitted via: CDex 1.70beta2
#
DISCID=380f5e16
DTITLE=Bing Crosby - The Chronological Bing Crosby, Vol. 51
DYEAR=1950
DGENRE=Jazz
TTITLE0=Accidents Will Happen
TTITLE1=Milady
TTITLE2=Home Cookin'
TTITLE3=And You'll Be Home
TTITLE4=Once More The Blue And White
TTITLE5=Accidents Will Happen
TTITLE6=Wouldn't It Be Funny?
TTITLE7=The Teddy Bears' Picnic
TTITLE8=Rudolph The Red-Nosed Reindeer
TTITLE9=I Cross My Fingers
TTITLE10=La Vie En Rose
TTITLE11=Play A Simple Melody
TTITLE12=Sam's Song
TTITLE13=The Friendly Islands
TTITLE14=All My Love
TTITLE15=Early American
TTITLE16=Harbour Lights
TTITLE17=Beyond The Reef
TTITLE18=I Will Remember You
TTITLE19=A Crosby Christmas - Part 1
TTITLE20=A Crosby Christmas - Part 2
TTITLE21=That Christmas Feeling
EXTD=YEAR: 1950
EXTT0=
EXTT1=
EXTT2=
EXTT3=
EXTT4=
EXTT5=
EXTT6=
EXTT7=
EXTT8=
EXTT9=
EXTT10=
EXTT11=
EXTT12=
EXTT13=
EXTT14=
EXTT15=
EXTT16=
EXTT17=
EXTT18=
EXTT19=
EXTT20=
EXTT21=
PLAYORDER=
